<?xml version="1.0" standalone="no"?>
<!DOCTYPE svg PUBLIC "-//W3C//DTD SVG 20010904//EN"
 "http://www.w3.org/TR/2001/REC-SVG-20010904/DTD/svg10.dtd">
<svg version="1.0" xmlns="http://www.w3.org/2000/svg"
 width="600.000000pt" height="600.000000pt" viewBox="0 0 600.000000 600.000000"
 preserveAspectRatio="xMidYMid meet">
<metadata>
Created by potrace 1.14, written by Peter Selinger 2001-2017
</metadata>
<g transform="translate(0.000000,600.000000) scale(0.100000,-0.100000)"
fill="#000000" stroke="none">
<path d="M2958 5055 c-2 -1 -37 -5 -78 -9 -328 -26 -685 -159 -970 -360 -201
-142 -405 -343 -558 -550 -28 -39 -69 -93 -89 -121 -166 -226 -387 -675 -518
-1055 -107 -311 -211 -752 -231 -979 -3 -36 -15 -100 -26 -141 -30 -108 -22
-188 27 -288 157 -316 754 -584 1565 -701 74 -11 171 -23 215 -26 44 -4 88 -9
99 -11 97 -18 777 -26 1016 -11 866 54 1605 286 1915 601 98 99 130 156 157
283 24 116 22 180 -17 388 -102 551 -353 1228 -643 1735 -103 181 -315 478
-415 583 -12 13 -47 50 -78 83 -307 322 -608 493 -999 566 -48 9 -364 20 -372
13z"/>
</g>
</svg>
