<svg height="680" viewBox="0 0 1300 680" width="1300" xmlns="http://www.w3.org/2000/svg"><g fill="none" fill-rule="evenodd"><path d="m1300 680h-1300v-680h1300z" fill="#30353e"/><g fill="#8c929d" transform="translate(667 276)"><path d="m237.0109 3.0669h-16.373l.052 121.866h66.236v-15.07h-49.863z"/><path d="m349.9956 103.5367c-4.093 4.279-10.977 8.559-20.28 8.559-12.466 0-17.489-6.14-17.489-14.141 0-12.093 8.372-17.861 26.234-17.861 3.349 0 8.744.372 11.535.93zm-16.931-73.864c-13.222 0-25.349 4.687-34.812 12.489l5.787 10.024c6.698-3.907 14.885-7.815 26.606-7.815 13.396 0 19.35 6.885 19.35 18.42v5.954c-2.605-.558-8-.931-11.349-.931-28.653 0-43.165 10.047-43.165 31.072 0 18.791 11.535 28.28 29.024 28.28 11.781 0 23.071-5.396 26.978-14.14l2.977 11.907h11.536v-62.328c0-19.722-8.559-32.932-32.932-32.932z"/><path d="m418.8252 112.6533c-6.14 0-11.536-.744-15.629-2.605v-50.514-5.86c5.582-4.652 12.466-8.001 21.211-8.001 15.814 0 21.954 11.163 21.954 29.211 0 25.675-9.861 37.769-27.536 37.769m6.881-82.981c-14.633 0-22.51 9.955-22.51 9.955v-15.722l-.052-20.838h-7.382-8.618l.052 118.889c8 3.349 18.977 5.209 30.885 5.209 30.513 0 45.211-19.535 45.211-53.211 0-26.606-13.585-44.282-37.586-44.282"/><path d="m59.0316 16.2769c14.512 0 23.815 4.837 29.955 9.675l7.036-12.188c-9.59-8.41-22.489-12.93-36.247-12.93-34.792 0-59.165 21.211-59.165 64.003 0 44.84 26.294 62.329 56.374 62.329 15.071 0 27.909-3.535 36.281-7.07l-.343-47.909v-5.652-9.419h-44.653v15.071h28.466l.343 36.373c-3.721 1.861-10.233 3.349-18.977 3.349-24.187 0-40.374-15.215-40.374-47.258 0-32.559 16.745-48.374 41.304-48.374"/><path d="m174.1768 3.0669h-16.001l.052 20.466v8.373 4.88 8.516 48.746.186c0 19.722 8.559 32.932 32.932 32.932 3.367 0 6.662-.306 9.861-.887v-14.369c-2.316.355-4.788.557-7.442.557-13.396 0-19.35-6.884-19.35-18.419v-48.746h26.792v-13.396h-26.792z"/><path d="m117.575 124.933h16.001v-93.028h-16.001z"/><path d="m117.575 19.068h16.001v-16.001h-16.001z"/></g><g transform="translate(169 169)"><path d="m185.3984 341.1298 68.013-209.322h-136.026z" fill="#e24329"/><path d="m185.3984 341.1294-68.013-209.321h-95.319z" fill="#fc6d26"/><path d="m22.0664 131.8081-20.669 63.611c-1.885 5.802.18 12.158 5.116 15.743l178.885 129.967z" fill="#fca326"/><path d="m22.0664 131.8083h95.319l-40.964-126.073c-2.108-6.487-11.285-6.487-13.392 0z" fill="#e24329"/><path d="m185.3984 341.1294 68.013-209.321h95.319z" fill="#fc6d26"/><path d="m348.7303 131.8081 20.669 63.611c1.885 5.802-.18 12.158-5.116 15.743l-178.885 129.967z" fill="#fca326"/><path d="m348.7303 131.8083h-95.319l40.964-126.073c2.108-6.487 11.285-6.487 13.392 0z" fill="#e24329"/></g></g></svg>